<svg width="20" height="21" viewBox="0 0 20 21" fill="none" xmlns="http://www.w3.org/2000/svg">
<path d="M14.1667 2.1665H5.83333C3.53214 2.1665 1.66666 4.03198 1.66666 6.33317V14.6665C1.66666 16.9677 3.53214 18.8332 5.83333 18.8332H14.1667C16.4679 18.8332 18.3333 16.9677 18.3333 14.6665V6.33317C18.3333 4.03198 16.4679 2.1665 14.1667 2.1665Z" stroke="#243047" stroke-linecap="round" stroke-linejoin="round"/>
<path d="M13.3333 9.97476C13.4362 10.6683 13.3177 11.3766 12.9948 11.9989C12.6719 12.6213 12.161 13.1259 11.5347 13.4412C10.9084 13.7564 10.1987 13.8661 9.50649 13.7547C8.81427 13.6433 8.1748 13.3165 7.67903 12.8207C7.18327 12.325 6.85645 11.6855 6.74506 10.9933C6.63367 10.3011 6.74339 9.59134 7.05861 8.96507C7.37383 8.33881 7.87849 7.82788 8.50082 7.50496C9.12316 7.18205 9.83146 7.06359 10.525 7.16643C11.2324 7.27133 11.8874 7.60098 12.3931 8.10669C12.8988 8.61239 13.2284 9.26733 13.3333 9.97476Z" stroke="#243047" stroke-linecap="round" stroke-linejoin="round"/>
<path d="M14.5833 5.9165H14.5917" stroke="#243047" stroke-linecap="round" stroke-linejoin="round"/>
</svg>
