<svg width="20" height="21" viewBox="0 0 20 21" fill="none" xmlns="http://www.w3.org/2000/svg">
<path d="M13.3333 7.1665C14.6594 7.1665 15.9312 7.69329 16.8689 8.63097C17.8065 9.56865 18.3333 10.8404 18.3333 12.1665V17.9998H15V12.1665C15 11.7245 14.8244 11.3006 14.5118 10.988C14.1993 10.6754 13.7754 10.4998 13.3333 10.4998C12.8913 10.4998 12.4674 10.6754 12.1548 10.988C11.8423 11.3006 11.6667 11.7245 11.6667 12.1665V17.9998H8.33333V12.1665C8.33333 10.8404 8.86011 9.56865 9.79779 8.63097C10.7355 7.69329 12.0072 7.1665 13.3333 7.1665V7.1665Z" stroke="#243047" stroke-linecap="round" stroke-linejoin="round"/>
<path d="M5.00001 8H1.66667V18H5.00001V8Z" stroke="#243047" stroke-linecap="round" stroke-linejoin="round"/>
<path d="M3.33334 5.49984C4.25381 5.49984 5.00001 4.75365 5.00001 3.83317C5.00001 2.9127 4.25381 2.1665 3.33334 2.1665C2.41286 2.1665 1.66667 2.9127 1.66667 3.83317C1.66667 4.75365 2.41286 5.49984 3.33334 5.49984Z" stroke="#243047" stroke-linecap="round" stroke-linejoin="round"/>
</svg>
