<svg viewBox="0 0 129 38" fill="none" xmlns="http://www.w3.org/2000/svg" style="width: 129px; height: 38px;"><g><path d="M28.3152 18.7515C28.3152 10.3009 32.7081 5.34961 40.7987 5.34961C48.339 5.34961 51.7354 9.69965 51.7354 16.2498C51.7582 17.3514 51.7079 18.4533 51.5849 19.5482H36.6549C36.9542 22.8484 38.2016 23.9987 40.6983 23.9987C43.195 23.9987 43.894 22.8484 44.3439 21.5492L51.4361 23.4496C50.3858 27.3492 47.7906 30.75 40.6537 30.75C33.5168 30.75 28.3152 26.9509 28.3152 18.7515ZM36.6549 16.3001H43.9944C44.0948 13.0501 42.8957 11.602 40.5496 11.602C38.1012 11.602 36.904 12.8007 36.6549 16.3001Z" fill="#FF634F"></path><path d="M68.4148 24.3002H67.6712C66.5223 28.0006 64.2747 30.5005 60.3298 30.5005C56.6842 30.5005 53.587 28.4008 53.587 23.6004C53.587 19.3508 56.0856 16.5011 62.6759 16.5011H67.9612V14.85C67.9612 13.1003 67.1116 12.058 65.3139 12.058C63.717 12.058 62.767 12.8583 62.4677 14.608L54.5277 12.8583C55.2267 8.70748 58.4726 5.41284 65.6634 5.41284C73.3543 5.41284 76.3994 8.86197 76.3994 14.9059V30.0072H68.4055L68.4148 24.3002ZM67.9612 20.5998V19.7008H64.468C62.8209 19.7008 61.5716 20.5998 61.5716 21.9512C61.5716 23.2541 62.2725 24.1513 64.3193 24.1513C66.5669 24.1513 67.9612 22.651 67.9612 20.5998Z" fill="#FF634F"></path><path d="M87.6671 30.0016H79.1824V6.10157H87.4235V12.5512H87.9719C89.4201 7.65024 92.1678 5.35144 95.6628 5.35144C99.7081 5.35144 101.956 8.35012 101.956 13.5508V30.0016H93.4654V16.0004C93.4654 14.0999 92.5656 13.0017 90.8628 13.0017C88.8661 13.0017 87.6671 14.6006 87.6671 16.9013V30.0016Z" fill="#FF634F"></path><path d="M103.331 37.6444L104.428 30.7946C105.447 31.0092 106.484 31.1264 107.525 31.1445C109.522 31.1445 110.522 30.843 111.221 29.6443L103.08 6.10156H112.32L114.266 15.0511C114.766 17.201 115.216 19.4514 115.616 21.6999H116.164C116.614 19.4514 117.014 17.3015 117.414 15.2L119.111 6.10156H128.25L119.31 29.8509C117.163 35.5504 113.967 38.0018 107.375 38.0018C106.019 37.9972 104.667 37.8777 103.331 37.6444Z" fill="#FF634F"></path><path d="M18.9771 15.1998V14.7493C23.2213 13.7982 25.5191 11.6483 25.5191 7.64818C25.5191 2.3991 21.9721 -0.0020752 13.7328 -0.0020752H0V30.0015H15.1308C23.3701 30.0015 26.5676 26.7496 26.5676 21.75C26.5676 17.4502 24.7197 15.7005 18.9771 15.1998ZM16.5399 23.2912C16.1629 23.5242 15.7214 23.6307 15.2798 23.5952C14.8381 23.5598 14.4192 23.3841 14.0841 23.0939C13.3833 22.4908 12.6806 22.4871 11.9908 23.0939C11.6456 23.4024 11.2069 23.5858 10.745 23.6149C10.2832 23.6439 9.82503 23.5168 9.44395 23.254C9.05195 23.0171 8.75275 22.653 8.59615 22.2223C8.43955 21.7915 8.43499 21.32 8.58322 20.8863C8.91413 19.8439 9.64659 19.1664 10.6282 18.742C11.391 18.4143 12.215 18.2538 13.0449 18.2711C14.0834 18.2439 15.1088 18.5069 16.0064 19.0305C16.7705 19.5014 17.3505 20.1231 17.5438 21.0352C17.6343 21.4692 17.586 21.9206 17.4058 22.3255C17.2256 22.7305 16.9227 23.0683 16.5399 23.2912ZM17.4843 9.70314C17.1534 10.7455 16.421 11.4231 15.4394 11.8474C14.6765 12.1753 13.8526 12.3364 13.0226 12.3202C11.984 12.3439 10.9592 12.0777 10.063 11.5515C9.30081 11.0824 8.71893 10.4589 8.52745 9.54679C8.43698 9.11283 8.48526 8.66137 8.66545 8.25644C8.84564 7.85151 9.14859 7.51365 9.53133 7.2908C9.908 7.05764 10.3492 6.95104 10.7906 6.98653C11.232 7.02203 11.6506 7.19775 11.9853 7.4881C12.6861 8.09305 13.3907 8.09491 14.0786 7.4881C14.4242 7.17944 14.8634 6.99604 15.3256 6.96734C15.7878 6.93865 16.2463 7.06633 16.6273 7.32989C17.0199 7.56752 17.3191 7.9328 17.4751 8.36473C17.6311 8.79666 17.6343 9.26909 17.4843 9.70314Z" fill="#FF634F"></path></g></svg>