<?xml version="1.0" encoding="utf-8"?>
<!-- Generator: Adobe Illustrator 26.5.0, SVG Export Plug-In . SVG Version: 6.00 Build 0)  -->
<svg version="1.1" id="Layer_1" xmlns="http://www.w3.org/2000/svg" xmlns:xlink="http://www.w3.org/1999/xlink" x="0px" y="0px"
	 viewBox="0 0 103 32" enable-background="new 0 0 103 32" xml:space="preserve">
<path fill="#FFFFFF" d="M16.5041008,32c8.8364983,0,15.9999008-7.1634007,15.9999008-16c0-8.8365593-7.1634026-16-15.9999008-16
	C7.66747,0,0.504028,7.1634402,0.504028,16C0.504028,24.8365993,7.66747,32,16.5041008,32z"/>
<path fill="#FFFFFF" d="M51.275753,32c8.8364983,0,15.9999046-7.1634007,15.9999046-16c0-8.8365593-7.1634064-16-15.9999046-16
	c-8.836628,0-16.0000725,7.1634402-16.0000725,16C35.2756805,24.8365993,42.4391251,32,51.275753,32z"/>
<path fill="#FFFFFF" d="M86.0474091,32c8.8364944,0,15.9999008-7.1634007,15.9999008-16c0-8.8365593-7.1634064-16-15.9999008-16
	c-8.8366318,0-16.0000763,7.1634402-16.0000763,16C70.0473328,24.8365993,77.2107773,32,86.0474091,32z"/>
<path fill="#243047" d="M8.1629696,15.9537001l2.7305307-2.7371998c0.0904999-0.0923004,0.1409998-0.2145004,0.1409998-0.3439999
	c0-0.2700005-0.2194004-0.4893007-0.4893999-0.4893007c-0.1315002,0-0.2547998,0.0516005-0.3478003,0.1457005
	c-0.0003004,0.0004997-2.7280898,2.7268-2.7280898,2.7268L4.72893,12.5248003
	c-0.0925899-0.0913-0.2152801-0.1416006-0.3453798-0.1416006c-0.26967,0-0.4892001,0.2192001-0.4892001,0.4889002
	c0,0.1316004,0.0525301,0.2550001,0.1468101,0.3480997l2.7301497,2.7297001l-2.7287397,2.7339001
	c-0.0959101,0.0944004-0.1482201,0.2182007-0.1482201,0.3502998c0,0.2700005,0.2195301,0.4890003,0.4892001,0.4890003
	c0.1303101,0,0.2531199-0.0506001,0.3453798-0.1429005l2.7360301-2.732399l2.7256403,2.7223988
	c0.0966997,0.0999012,0.2213993,0.1532001,0.3544998,0.1532001c0.2697001,0,0.4891996-0.2192993,0.4891996-0.4892998
	c0-0.1301994-0.0504999-0.2525997-0.1422997-0.3449001L8.1629696,15.9537001z"/>
<path fill="#243047" d="M24.3955994,15.9528999c0,0.4902992,0.3986015,0.8890991,0.8894005,0.8890991
	c0.4897003,0,0.8885002-0.3987999,0.8885002-0.8890991c0-0.4903002-0.3987999-0.8889999-0.8885002-0.8889999
	C24.7942009,15.0639,24.3955994,15.4625998,24.3955994,15.9528999z"/>
<path fill="#243047" d="M22.7094002,15.9533997c0-1.4196997,1.1548996-2.5747995,2.5746994-2.5747995
	c1.4190998,0,2.5741997,1.1550999,2.5741997,2.5747995c0,1.4193001-1.1550999,2.5739002-2.5741997,2.5739002
	C23.8642998,18.5272999,22.7094002,17.3726997,22.7094002,15.9533997z M21.6966,15.9533997
	c0,1.9778004,1.6093006,3.5869007,3.5874996,3.5869007c1.9780998,0,3.5881996-1.6091003,3.5881996-3.5869007
	c0-1.9780998-1.6100998-3.5876999-3.5881996-3.5876999C23.3059006,12.3656998,21.6966,13.9752998,21.6966,15.9533997z"/>
<path fill="#243047" d="M21.4419994,12.4271002l-0.1505985-0.0004997c-0.4518013,0-0.8876019,0.1424999-1.2516003,0.4229994
	c-0.0480003-0.2193995-0.2441998-0.3845997-0.4778004-0.3845997c-0.269001,0-0.4845009,0.2154999-0.4852009,0.4849997
	c0,0.0010004,0.0017014,6.042201,0.0017014,6.042201c0.0007,0.2689991,0.2200985,0.4876995,0.4891987,0.4876995
	S20.0562,19.2612,20.0569,18.9916c0-0.0011997,0.0002003-3.7152004,0.0002003-3.7152004
	c0-1.2381992,0.1131992-1.7382994,1.1739006-1.8708992c0.0980988-0.0122004,0.2046986-0.0103006,0.2050991-0.0103006
	c0.2903004-0.0099001,0.4965-0.2094002,0.4965-0.4789C21.9326,12.6465998,21.7124004,12.4271002,21.4419994,12.4271002z"/>
<path fill="#243047" d="M12.0480003,15.3627996c0-0.0134001,0.0010996-0.0274,0.0016994-0.0410995
	c0.2840004-1.1229,1.3009005-1.9537001,2.5120001-1.9537001c1.2257004,0,2.2519007,0.8513002,2.5213995,1.9947996H12.0480003z
	 M18.0848999,15.2704c-0.2108002-0.9982004-0.7572002-1.8181-1.5893993-2.3445997
	c-1.2164001-0.7723007-2.8226004-0.7295008-3.9975004,0.1059999c-0.9583998,0.6817999-1.5116005,1.7971001-1.5116005,2.9460001
	c0,0.2880001,0.0347004,0.5788002,0.1070004,0.8649998c0.3619003,1.4235992,1.5857,2.5011997,3.0446997,2.6798
	c0.4330006,0.0524006,0.8544006,0.0273991,1.2908001-0.0855999c0.375-0.091301,0.7378998-0.2434006,1.0722008-0.4575996
	c0.3470001-0.2231007,0.6369991-0.5173016,0.9176998-0.8694c0.0056992-0.0065002,0.0114002-0.0122013,0.0170994-0.019001
	c0.1947994-0.2416992,0.1587009-0.5853996-0.0553989-0.7493992c-0.1807003-0.1385002-0.4839001-0.1946011-0.7224007,0.110899
	c-0.0513,0.073101-0.1084995,0.1483002-0.1714993,0.2234001c-0.1897011,0.2096996-0.4251003,0.4127998-0.7071009,0.5703011
	c-0.3589001,0.1917-0.7679005,0.3013-1.2026005,0.3036995c-1.4229994-0.0158005-2.1844997-1.0091-2.4553995-1.7180996
	c-0.0473003-0.1324005-0.0838003-0.269701-0.1092005-0.4111996C12.0089998,16.3941994,12.0065002,16.3687,12.0056,16.3451004
	c0.2941999,0,5.1065006-0.0008011,5.1065006-0.0008011C17.8122005,16.3295994,18.1889992,15.8354998,18.0848999,15.2704z"/>
<g>
	<path d="M41.6425781,15.1137695v-2.7486324c0-0.1587896,0.0867195-0.2449226,0.2449226-0.2449226h0.7863274
		c0.609375,0,0.9164047,0.4511719,0.9164047,0.9785156c0,0.523243-0.311718,0.9785156-0.9164047,0.9785156h-0.5753899v1.0365238
		c0,0.1248045-0.1007805,0.2302732-0.2250023,0.2302732C41.7433586,15.3440428,41.6425781,15.238574,41.6425781,15.1137695z
		 M42.6210938,12.5233402h-0.5226555v1.1513672h0.5226555c0.3070297,0,0.499218-0.2349615,0.499218-0.5759773
		C43.1203117,12.7583008,42.9281235,12.5233402,42.6210938,12.5233402z"/>
	<path d="M44.1492195,15.075098v-2.7486334c0-0.1248045,0.1007805-0.2302732,0.2308578-0.2302732
		c0.124218,0,0.2250023,0.1054688,0.2250023,0.2302732v2.5904303h0.9550781c0.1101532,0,0.201561,0.0914059,0.201561,0.2015619
		s-0.0914078,0.2015629-0.201561,0.2015629h-1.1660156C44.235939,15.3200197,44.1492195,15.2338867,44.1492195,15.075098z"/>
	<path d="M48.5050774,15.1184568c0,0.1248045-0.1007805,0.2255859-0.2249985,0.2255859
		c-0.1054688,0-0.1921883-0.0720701-0.2156258-0.1628904l-0.1488266-0.5373049h-1.1425781l-0.1441422,0.5373049
		c-0.0234375,0.0908203-0.1148453,0.1628904-0.2156258,0.1628904c-0.124218,0-0.2249985-0.1054688-0.2249985-0.2302732
		c0-0.0193357,0.0046883-0.0386715,0.014061-0.0626955l0.8015633-2.7005854
		c0.0433578-0.1488285,0.1816406-0.2542973,0.3398438-0.2542973c0.1640625,0,0.3023453,0.1054688,0.3457031,0.2542973
		l0.8015633,2.7005854C48.5003891,15.0704098,48.5050774,15.0944338,48.5050774,15.1184568z M47.8101578,14.2407227
		L47.34375,12.5420895l-0.4605484,1.6986332H47.8101578z"/>
	<path d="M49.3394547,15.1137695v-2.5904293h-0.5660172c-0.1054688,0-0.201561-0.0914068-0.201561-0.2015629
		s0.0960922-0.2015629,0.201561-0.2015629h1.5878906c0.110157,0,0.2062492,0.0914068,0.2062492,0.2015629
		s-0.0960922,0.2015629-0.2062492,0.2015629H49.795311v2.5904293c0,0.1248045-0.1007805,0.2302732-0.2261696,0.2302732
		C49.4402351,15.3440428,49.3394547,15.238574,49.3394547,15.1137695z"/>
	<path d="M51.1054688,15.1137695v-2.7873049c0-0.1248045,0.1007805-0.2302732,0.2308578-0.2302732
		c0.1242218,0,0.2250023,0.1054688,0.2250023,0.2302732v2.7873049c0,0.1248045-0.1007805,0.2302732-0.2250023,0.2302732
		C51.2062492,15.3440428,51.1054688,15.238574,51.1054688,15.1137695z"/>
	<path d="M54,15.1999025l-1.2000008-2.2207031v2.1345701c0,0.1248045-0.1007805,0.2302732-0.2249985,0.2302732
		c-0.1300774,0-0.2308617-0.1054688-0.2308617-0.2302732V12.379199c0-0.1535158,0.1253929-0.2830076,0.283596-0.2830076
		c0.1054688,0,0.1968727,0.0574217,0.2449226,0.1488285l1.1648407,2.1445312v-2.0630865
		c0-0.1248045,0.1007843-0.2302732,0.2261734-0.2302732c0.1289062,0,0.2296867,0.1054688,0.2296867,0.2302732v2.7539062
		c0,0.1435547-0.1195297,0.2636719-0.2636719,0.2636719C54.124218,15.3440428,54.0374985,15.2866211,54,15.1999025z"/>
	<path d="M55.2785149,12.3264647c0-0.1248045,0.1007805-0.2302732,0.2308617-0.2302732
		c0.124218,0,0.2249985,0.1054688,0.2249985,0.2302732v1.9429693c0,0.4605465,0.2261734,0.7054682,0.6140633,0.7054682
		c0.389061,0,0.6140633-0.2449217,0.6140633-0.7054682v-1.9429693c0-0.1248045,0.1007805-0.2302732,0.2261696-0.2302732
		c0.1289062,0,0.2296867,0.1054688,0.2296867,0.2302732v1.9382811c0,0.7148438-0.4031219,1.1126957-1.0699196,1.1126957
		s-1.0699234-0.3978519-1.0699234-1.1126957V12.3264647z"/>
	<path d="M60.4570312,15.1184568v-2.2353516l-0.7675781,2.336133c-0.0281258,0.0814457-0.0714836,0.1201172-0.1335945,0.1201172
		c-0.0621071,0-0.110157-0.0386715-0.1347656-0.1201172l-0.7628899-2.336133v2.2306643
		c0,0.1248045-0.1007805,0.2302732-0.2249985,0.2302732c-0.1300812,0-0.2308617-0.1054688-0.2308617-0.2302732v-2.6578121
		c0-0.1968756,0.1628914-0.359766,0.3597679-0.359766c0.1582031,0,0.2929688,0.1054688,0.3410149,0.2449217l0.6527328,2.0144529
		l0.6621094-2.0144529c0.0421867-0.1441402,0.1769524-0.2449217,0.3351555-0.2449217
		c0.1968765,0,0.3550797,0.1628904,0.3550797,0.3550777v2.6671877c0,0.1201172-0.1007805,0.2255859-0.2249985,0.2255859
		C60.5578117,15.3440428,60.4570312,15.238574,60.4570312,15.1184568z"/>
	<path d="M42.764061,19.6729488V16.924902c0-0.1587887,0.0867195-0.2449207,0.2449226-0.2449207h0.7863274
		c0.609375,0,0.9164085,0.4511719,0.9164085,0.9785156c0,0.5226555-0.311718,0.9785156-0.9164085,0.9785156h-0.5753899v1.0359364
		c0,0.125391-0.1007805,0.2308598-0.2249985,0.2308598C42.8648453,19.9038086,42.764061,19.7983398,42.764061,19.6729488z
		 M43.7425766,17.0831051h-0.5226555v1.1507816h0.5226555c0.3070335,0,0.4992218-0.234375,0.4992218-0.5753899
		C44.2417984,17.3180656,44.0496101,17.0831051,43.7425766,17.0831051z"/>
	<path d="M47.2300797,19.6776371c0,0.125391-0.1007843,0.2261715-0.2250023,0.2261715
		c-0.1054688,0-0.1921883-0.0726566-0.2156258-0.1628914l-0.1488266-0.5378895h-1.1425781l-0.1441422,0.5378895
		c-0.0234375,0.0902348-0.1148415,0.1628914-0.2156219,0.1628914c-0.1242218,0-0.2250023-0.1054688-0.2250023-0.2308598
		c0-0.0187492,0.0046883-0.0386715,0.0140648-0.062109l0.8015594-2.7005863
		c0.0433617-0.1488285,0.1816406-0.2542973,0.3398438-0.2542973c0.1640625,0,0.3023453,0.1054688,0.3457031,0.2542973
		l0.8015633,2.7005863C47.2253914,19.6295891,47.2300797,19.6541996,47.2300797,19.6776371z M46.5351562,18.799902
		l-0.4664078-1.6980457l-0.4605446,1.6980457H46.5351562z"/>
	<path d="M49.7285156,19.6881828c0,0.0996094-0.0914078,0.2156258-0.2214851,0.2156258
		c-0.0855446,0-0.1675758-0.0480461-0.2062492-0.125391l-0.5999985-1.1414051h-0.4746094v1.0359364
		c0,0.125391-0.1007843,0.2308598-0.2250023,0.2308598c-0.1300774,0-0.2308578-0.1054688-0.2308578-0.2308598V16.924902
		c0-0.1587887,0.0867195-0.2449207,0.2449226-0.2449207h0.796875c0.5320282,0,0.9058571,0.3837891,0.9058571,0.9738274
		c0,0.5367184-0.2824211,0.8109379-0.5660133,0.8964844l0.5472641,1.0171871
		C49.7132797,19.6014652,49.7285156,19.6295891,49.7285156,19.6881828z M48.2261734,18.2338867h0.5226555
		c0.3070297,0,0.499218-0.234375,0.499218-0.5753899c0-0.3404312-0.1921883-0.5753918-0.499218-0.5753918h-0.5226555V18.2338867z"/>
	<path d="M50.8910141,19.6729488v-2.5898438h-0.5660133c-0.1054688,0-0.2015648-0.0914059-0.2015648-0.2015629
		c0-0.1101551,0.096096-0.201561,0.2015648-0.201561h1.5878906c0.110157,0,0.2062492,0.0914059,0.2062492,0.201561
		c0,0.110157-0.0960922,0.2015629-0.2062492,0.2015629h-0.5660172v2.5898438c0,0.125391-0.1007805,0.2308598-0.2261696,0.2308598
		C50.9917984,19.9038086,50.8910141,19.7983398,50.8910141,19.6729488z"/>
	<path d="M54.3128891,19.7596684l-1.1999969-2.2207031v2.1339836c0,0.125391-0.1007843,0.2308598-0.2250023,0.2308598
		c-0.1300774,0-0.2308578-0.1054688-0.2308578-0.2308598v-2.733984c0-0.1535149,0.1253891-0.2830086,0.2835922-0.2830086
		c0.1054688,0,0.1968765,0.0574226,0.2449226,0.1488285l1.1648445,2.1439457v-2.0625
		c0-0.1248055,0.1007805-0.2302742,0.2261696-0.2302742c0.1289062,0,0.2296906,0.1054688,0.2296906,0.2302742v2.7539062
		c0,0.1429691-0.1195335,0.2636719-0.2636719,0.2636719C54.4371109,19.9038086,54.3503914,19.846386,54.3128891,19.7596684z"/>
	<path d="M55.5949211,19.6342773V16.924902c0-0.1587887,0.0867195-0.2449207,0.2449226-0.2449207h1.2761726
		c0.1054688,0,0.201561,0.0914059,0.201561,0.201561c0,0.110157-0.0960922,0.2015629-0.201561,0.2015629h-1.0652351v0.9632816
		h1.03125c0.1054688,0,0.201561,0.0914059,0.201561,0.1968746c0,0.1160164-0.0960922,0.2062511-0.201561,0.2062511h-1.03125
		v1.0265617h1.0652351c0.1054688,0,0.201561,0.0914059,0.201561,0.2015629c0,0.1101551-0.0960922,0.2015629-0.201561,0.2015629
		h-1.2761726C55.6816406,19.8792,55.5949211,19.7936516,55.5949211,19.6342773z"/>
	<path d="M59.8886719,19.6881828c0,0.0996094-0.0914078,0.2156258-0.2214851,0.2156258
		c-0.0855446,0-0.1675758-0.0480461-0.2062492-0.125391l-0.5999985-1.1414051h-0.4746094v1.0359364
		c0,0.125391-0.1007843,0.2308598-0.2250023,0.2308598c-0.1300774,0-0.2308578-0.1054688-0.2308578-0.2308598V16.924902
		c0-0.1587887,0.0867195-0.2449207,0.2449226-0.2449207h0.796875c0.5320282,0,0.9058571,0.3837891,0.9058571,0.9738274
		c0,0.5367184-0.2824211,0.8109379-0.5660133,0.8964844l0.5472641,1.0171871
		C59.873436,19.6014652,59.8886719,19.6295891,59.8886719,19.6881828z M58.3863297,18.2338867h0.5226555
		c0.3070297,0,0.499218-0.234375,0.499218-0.5753899c0-0.3404312-0.1921883-0.5753918-0.499218-0.5753918h-0.5226555V18.2338867z"/>
</g>
<g>
	<path d="M76.3904266,13.7207031c0-0.9597654,0.4898453-1.6552734,1.2621155-1.6552734
		c0.4265594,0,0.6902313,0.2062502,0.8777313,0.4798832c0.0234375,0.0333977,0.0386734,0.0714836,0.0386734,0.1148434
		c0,0.1101561-0.0960922,0.2062502-0.2062531,0.2062502c-0.0773392,0-0.1394501-0.0380859-0.173439-0.0960941
		c-0.1289062-0.1869135-0.3070297-0.2970705-0.5367126-0.2970705c-0.4851608,0-0.796875,0.5273438-0.796875,1.2474613
		c0,0.7195311,0.3117142,1.2468748,0.796875,1.2468748c0.2390594,0,0.421875-0.1294918,0.5460892-0.3310547
		c0.033989-0.0574217,0.0960922-0.1007814,0.173439-0.1007814c0.1101532,0,0.2062531,0.0914068,0.2062531,0.2062502
		c0,0.0386724-0.0140686,0.0820312-0.033989,0.1107426c-0.1875,0.2923822-0.4558563,0.5226564-0.8917923,0.5226564
		C76.8802719,15.375391,76.3904266,14.679883,76.3904266,13.7207031z"/>
	<path d="M79.1560516,15.0730467v-2.7099609c0-0.1587887,0.0867233-0.2449217,0.2449265-0.2449217h1.2761688
		c0.1054688,0,0.201561,0.0914059,0.201561,0.2015629c0,0.1101561-0.0960922,0.2015619-0.201561,0.2015619h-1.0652313v0.9638672
		h1.03125c0.1054688,0,0.201561,0.0914068,0.201561,0.1968756c0,0.1154289-0.0960922,0.2062492-0.201561,0.2062492h-1.03125
		v1.0265627h1.0652313c0.1054688,0,0.201561,0.0914068,0.201561,0.2015629s-0.0960922,0.2015619-0.201561,0.2015619h-1.2761688
		C79.242775,15.3179684,79.1560516,15.2318363,79.1560516,15.0730467z"/>
	<path d="M83.4486313,15.1263676c0,0.1001949-0.0914078,0.2156248-0.2214813,0.2156248
		c-0.0855484,0-0.1675797-0.0480471-0.2062531-0.1248045l-0.5999985-1.1419926h-0.4746094v1.0365238
		c0,0.1248045-0.1007843,0.2302732-0.2249985,0.2302732c-0.1300812,0-0.2308578-0.1054688-0.2308578-0.2302732v-2.7486334
		c0-0.1587887,0.0867157-0.2449217,0.2449188-0.2449217h0.796875c0.5320282,0,0.9058609,0.3837891,0.9058609,0.9738283
		c0,0.5373049-0.2824249,0.8109369-0.5660172,0.8970699l0.5472641,1.0171881
		C83.4333954,15.0396481,83.4486313,15.0683594,83.4486313,15.1263676z M81.9462891,13.6726561h0.5226593
		c0.3070297,0,0.4992142-0.2349606,0.4992142-0.5759764c0-0.3404293-0.1921844-0.5753908-0.4992142-0.5753908h-0.5226593V13.6726561
		z"/>
	<path d="M84.6123047,15.1117191v-2.5904303h-0.5660172c-0.1054688,0-0.201561-0.0914059-0.201561-0.2015619
		c0-0.110157,0.0960922-0.2015629,0.201561-0.2015629h1.5878906c0.1101608,0,0.2062531,0.0914059,0.2062531,0.2015629
		c0,0.1101561-0.0960922,0.2015619-0.2062531,0.2015619H85.068161v2.5904303c0,0.1248045-0.1007767,0.2302732-0.2261658,0.2302732
		C84.713089,15.3419924,84.6123047,15.2365236,84.6123047,15.1117191z"/>
	<path d="M86.3771515,15.1117191v-2.7873049c0-0.1248045,0.1007767-0.2302732,0.2308578-0.2302732
		c0.1242142,0,0.2249985,0.1054688,0.2249985,0.2302732v2.7873049c0,0.1248045-0.1007843,0.2302732-0.2249985,0.2302732
		C86.4779282,15.3419924,86.3771515,15.2365236,86.3771515,15.1117191z"/>
	<path d="M87.6169891,15.1117191v-2.7486334c0-0.1587887,0.0867233-0.2449217,0.2449265-0.2449217h1.2761688
		c0.1054688,0,0.201561,0.0914059,0.201561,0.2015629c0,0.1101561-0.0960922,0.2015619-0.201561,0.2015619h-1.0652313v0.9638672
		h1.03125c0.1054688,0,0.201561,0.0914068,0.201561,0.1968756c0,0.1154289-0.0960922,0.2062492-0.201561,0.2062492h-1.03125
		v1.2234383c0,0.1248045-0.1007843,0.2302732-0.2249985,0.2302732
		C87.7177734,15.3419924,87.6169891,15.2365236,87.6169891,15.1117191z"/>
	<path d="M89.9091797,15.1117191v-2.7873049c0-0.1248045,0.1007843-0.2302732,0.2308578-0.2302732
		c0.1242218,0,0.2249985,0.1054688,0.2249985,0.2302732v2.7873049c0,0.1248045-0.1007767,0.2302732-0.2249985,0.2302732
		C90.009964,15.3419924,89.9091797,15.2365236,89.9091797,15.1117191z"/>
	<path d="M91.14785,15.0730467v-2.7099609c0-0.1587887,0.0867233-0.2449217,0.2449265-0.2449217h1.2761688
		c0.1054688,0,0.201561,0.0914059,0.201561,0.2015629c0,0.1101561-0.0960922,0.2015619-0.201561,0.2015619H91.603714v0.9638672
		h1.03125c0.1054688,0,0.201561,0.0914068,0.201561,0.1968756c0,0.1154289-0.0960922,0.2062492-0.201561,0.2062492h-1.03125
		v1.0265627h1.0652313c0.1054688,0,0.201561,0.0914068,0.201561,0.2015629s-0.0960922,0.2015619-0.201561,0.2015619h-1.2761688
		C91.2345734,15.3179684,91.14785,15.2318363,91.14785,15.0730467z"/>
	<path d="M93.4833984,15.0730467v-2.7099609c0-0.1587887,0.0867157-0.2449217,0.2449188-0.2449217h0.6574249
		c0.84375,0,1.3195343,0.6814451,1.3195343,1.6025391c0,0.9257812-0.4699249,1.5972652-1.3148499,1.5972652h-0.6621094
		C93.5701141,15.3179684,93.4833984,15.2318363,93.4833984,15.0730467z M94.3857422,14.9148436
		c0.5613251,0,0.8496094-0.5085936,0.8496094-1.1941404c0-0.6960936-0.2835922-1.1994143-0.8496094-1.1994143h-0.4464874v2.3935547
		H94.3857422z"/>
	<path d="M79.8462906,19.6755867c0,0.1253891-0.1007843,0.2261715-0.2249985,0.2261715
		c-0.1054688,0-0.1921921-0.0726566-0.2156296-0.1628914l-0.1488266-0.5378895h-1.1425781l-0.1429672,0.5378895
		c-0.0246124,0.0902348-0.1160202,0.1628914-0.2167969,0.1628914c-0.1242218,0-0.2249985-0.1054688-0.2249985-0.2308598
		c0-0.0187492,0.0046844-0.0386715,0.014061-0.062109l0.8015594-2.7005863
		c0.0433578-0.1488285,0.1816406-0.2542973,0.3398438-0.2542973c0.1640625,0,0.3023453,0.1054688,0.3457031,0.2542973
		l0.8015671,2.7005863C79.8415985,19.6275387,79.8462906,19.6521492,79.8462906,19.6755867z M79.1513672,18.7978516
		l-0.4664078-1.6980476l-0.4605484,1.6980476H79.1513672z"/>
	<path d="M80.3865204,19.6322269v-2.7093754c0-0.1587887,0.0867233-0.2449226,0.2449265-0.2449226h0.6574173
		c0.84375,0,1.3195343,0.6814461,1.3195343,1.6019535c0,0.9257812-0.4699249,1.5972652-1.3148422,1.5972652h-0.6621094
		C80.4732437,19.8771477,80.3865204,19.7916012,80.3865204,19.6322269z M81.2888641,19.4740238
		c0.5613327,0,0.8496094-0.5085945,0.8496094-1.1941414c0-0.695507-0.2835922-1.1988277-0.8496094-1.1988277h-0.4464798v2.3929691
		H81.2888641z"/>
	<path d="M83.775589,19.6474609l-0.796875-2.6865234c-0.0093765-0.0240231-0.0140686-0.0480461-0.0140686-0.0673828
		c0-0.1294918,0.1007843-0.2396488,0.2296906-0.2396488c0.1113281,0,0.201561,0.0720711,0.2261734,0.1728516l0.6949234,2.5089855
		l0.7007751-2.5089855c0.0246124-0.1007805,0.1148453-0.1728516,0.2261734-0.1728516
		c0.1289062,0,0.2296906,0.1054688,0.2296906,0.2349606c0,0.024025-0.0046921,0.048048-0.014061,0.0720711l-0.796875,2.6865234
		c-0.0433655,0.1441402-0.1816406,0.2542973-0.3457031,0.2542973C83.9572296,19.9017582,83.8189468,19.7916012,83.775589,19.6474609
		z"/>
	<path d="M85.8146515,19.6708984v-2.7867184c0-0.1248055,0.1007767-0.2302742,0.2308578-0.2302742
		c0.1242142,0,0.2249985,0.1054688,0.2249985,0.2302742v2.7867184c0,0.125391-0.1007843,0.2308598-0.2249985,0.2308598
		C85.9154282,19.9017582,85.8146515,19.7962894,85.8146515,19.6708984z"/>
	<path d="M86.8845673,19.4845695c0-0.1160145,0.0914078-0.2121086,0.2062531-0.2121086
		c0.0480499,0,0.0914078,0.0105476,0.1253891,0.0386715c0.1675797,0.1300793,0.3738327,0.2156258,0.609375,0.2156258
		c0.3691406,0,0.5460968-0.2203121,0.5460968-0.4746094c0-0.3210945-0.2871094-0.4605465-0.6082077-0.609375
		c-0.389061-0.1769543-0.8355408-0.3691406-0.8355408-0.9492188c0-0.4945316,0.389061-0.8683605,0.9785156-0.8683605
		c0.2789001,0,0.5132751,0.0767593,0.7347641,0.2255859c0.0574188,0.0380859,0.0960922,0.1007824,0.0960922,0.172266
		c0,0.1154308-0.0960922,0.2115231-0.2062531,0.2115231c-0.0433578,0-0.0820312-0.0146484-0.1160126-0.0339832
		c-0.1582031-0.1148434-0.3398438-0.1675777-0.5226593-0.1675777c-0.2976532,0-0.4992142,0.1728516-0.4992142,0.4365234
		c0,0.273632,0.2742157,0.39785,0.576561,0.5419922c0.4019547,0.186327,0.8625031,0.4031239,0.8625031,1.0124989
		c0,0.4933605-0.3304749,0.9105473-1.0019531,0.9105473c-0.3550797,0-0.6386719-0.1054688-0.863678-0.2824211
		C86.9185562,19.6134758,86.8845673,19.5560551,86.8845673,19.4845695z"/>
	<path d="M90.5677719,16.6251945c0.796875,0,1.252739,0.719532,1.252739,1.6546879s-0.455864,1.6546879-1.252739,1.6546879
		c-0.7910156,0-1.2421875-0.719532-1.2421875-1.6546879S89.7767563,16.6251945,90.5677719,16.6251945z M90.5677719,17.0330086
		c-0.5039062,0-0.7769547,0.5419922-0.7769547,1.2468739c0,0.6960945,0.2730484,1.2468758,0.7769547,1.2468758
		s0.782814-0.5507812,0.782814-1.2468758C91.3505859,17.5750008,91.0716782,17.0330086,90.5677719,17.0330086z"/>
	<path d="M94.4419937,19.6861324c0,0.0996094-0.0914078,0.2156258-0.221489,0.2156258
		c-0.0855408,0-0.167572-0.048048-0.2062454-0.125391l-0.5999985-1.141407h-0.4746094v1.0359383
		c0,0.125391-0.1007843,0.2308598-0.2250061,0.2308598c-0.1300735,0-0.2308578-0.1054688-0.2308578-0.2308598v-2.7480469
		c0-0.1587887,0.0867233-0.2449226,0.2449265-0.2449226h0.796875c0.5320282,0,0.9058533,0.3837891,0.9058533,0.9738293
		c0,0.5367184-0.2824173,0.8109379-0.5660095,0.8964844l0.5472641,1.0171871
		C94.4267578,19.5994148,94.4419937,19.6275387,94.4419937,19.6861324z M92.9396515,18.2318363h0.5226517
		c0.3070297,0,0.4992218-0.234375,0.4992218-0.5753918c0-0.3404293-0.1921921-0.5753899-0.4992218-0.5753899h-0.5226517V18.2318363z
		"/>
</g>
</svg>
