<svg width="32" height="25" viewBox="0 0 32 25" fill="none" xmlns="http://www.w3.org/2000/svg" color="#006b85"><path d="M11.5526 25H0V16.7352C0 13.3909 0.287788 10.7593 0.863364 8.84046C1.46635 6.89419 2.56268 5.15351 4.15237 3.61842C5.74205 2.08333 7.77027 0.877193 10.237 0L12.4982 4.76974C10.1959 5.53728 8.53771 6.60636 7.5236 7.97697C6.5369 9.34759 6.01614 11.1705 5.96132 13.4457H11.5526V25ZM30.8344 25H19.2818V16.7352C19.2818 13.3635 19.5696 10.7182 20.1451 8.79934C20.7481 6.88048 21.8445 5.15351 23.4342 3.61842C25.0512 2.08333 27.0795 0.877193 29.5188 0L31.78 4.76974C29.4777 5.53728 27.8195 6.60636 26.8054 7.97697C25.8187 9.34759 25.2979 11.1705 25.2431 13.4457H30.8344V25Z" style="fill: #006b85;"></path></svg>